#!OML:ASF E:\Style4\Style4.ASF
:FULLY-SPECIFIED
:DEGREES
1246
root -1.34937 16.9162 -2.58037 7.77055 -11.2808 -5.41175
lowerback 20.1372 -1.2045 -7.20864
upperback 10.9048 -2.99224 -6.22982
thorax 0.632566 -1.65584 -2.01378
lowerneck -1.19734 4.75169 -4.10496
upperneck -8.73225 7.40098 12.8331
head -3.00585 3.44613 4.37175
rclavicle 1.43125e-014 2.22639e-014
rhumerus 49.0828 -0.393437 12.8506
rradius 64.2595
rwrist -86.5579
rhand 15.3349 6.43738
rfingers 7.12502
rthumb 40.1668 -18.7382
lclavicle 1.43125e-014 2.22639e-014
lhumerus 62.1775 -27.0096 56.3657
lradius 73.823
lwrist 91.3581
lhand -0.258904 26.1207
lfingers 7.12502
lthumb 25.3424 54.4568
rfemur -35.9514 4.79626 30.3828
rtibia 46.7987
rfoot -18.6547 -7.6971
rtoes -8.57376
lfemur -36.725 18.8923 -8.22926
ltibia 52.2789
lfoot -19.3158 2.98453
ltoes -10.6905
1247
root -1.39762 16.9079 -2.57508 7.73 -10.4253 -5.40399
lowerback 20.061 -1.09328 -6.79752
upperback 11.0373 -2.75694 -6.35739
thorax 0.782398 -1.51915 -2.4301
lowerneck -1.45362 4.51641 -3.95605
upperneck -8.70546 7.09779 13.035
head -2.92905 3.29599 4.42798
rclavicle 5.725e-014 6.67916e-014
rhumerus 49.1836 -0.44278 12.3844
rradius 64.0091
rwrist -86.4271
rhand 15.5756 6.29437
rfingers 7.12502
rthumb 40.3932 -18.8119
lclavicle 5.725e-014 6.67916e-014
lhumerus 62.2939 -26.9885 56.0495
lradius 73.8171
lwrist 91.3954
lhand -0.528414 26.2611
lfingers 7.12502
lthumb 25.0841 54.6336
rfemur -35.9998 4.47747 30.5568
rtibia 47.0171
rfoot -18.8853 -8.16177
rtoes -8.18457
lfemur -36.9444 18.5001 -8.08678
ltibia 52.2471
lfoot -19.0974 2.6059
ltoes -10.6319
1248
root -1.44694 16.8967 -2.57159 7.80226 -9.55247 -5.34415
lowerback 19.8783 -0.909468 -6.57769
upperback 11.1229 -2.44838 -6.35248
thorax 0.956344 -1.35658 -2.61203
lowerneck -1.51893 4.20558 -3.74867
upperneck -8.83578 6.68723 13.0146
head -2.91266 3.08455 4.40316
rclavicle -1.59028e-015 4.13472e-014
rhumerus 49.2181 -0.423534 12.1314
rradius 63.7813
rwrist -86.2406
rhand 15.9025 6.31445
rfingers 7.12502
rthumb 40.7005 -18.6964
lclavicle -1.59028e-015 4.13472e-014
lhumerus 62.346 -27.0248 55.9765
lradius 73.8297
lwrist 91.3651
lhand -0.75861 26.446
lfingers 7.12502
lthumb 24.8636 54.8492
rfemur -36.2037 4.10449 30.6907
rtibia 47.2451
rfoot -19.1081 -8.616
rtoes -8.01885
lfemur -37.3269 18.1593 -8.0414
ltibia 52.2092
lfoot -18.797 2.21193
ltoes -10.7008
1249
root -1.4966 16.8911 -2.57013 7.73014 -8.64592 -5.23692
lowerback 19.9059 -0.760086 -6.55596
upperback 11.1769 -2.23896 -6.25652
thorax 1.0052 -1.25166 -2.56093
lowerneck -1.42797 3.94661 -3.92332
upperneck -9.02855 6.36632 13.1652
head -2.96536 2.91681 4.48737
rclavicle 1.43125e-014 2.8625e-014
rhumerus 49.5772 -0.37004 12.0275
rradius 63.5835
rwrist -86.0055
rhand 16.0324 6.28924
rfingers 7.12502
rthumb 40.8226 -18.6833
lclavicle 1.43125e-014 2.8625e-014
lhumerus 62.1136 -26.9092 56.1148
lradius 73.7224
lwrist 91.2613
lhand -0.953416 26.3809
lfingers 7.12502
lthumb 24.6769 54.8098
rfemur -36.2621 3.65577 30.7861
rtibia 47.4687
rfoot -19.3076 -9.02094
rtoes -7.95038
lfemur -37.5358 17.681 -7.9916
ltibia 52.153
lfoot -18.5329 1.84373
ltoes -10.5526
1250
root -1.54313 16.8863 -2.56645 7.56452 -7.71836 -5.12179
lowerback 20.0607 -0.650549 -6.4956
upperback 11.2319 -2.08893 -6.20771
thorax 0.986985 -1.17174 -2.56891
lowerneck -1.31922 3.73214 -4.13457
upperneck -9.1479 6.10839 13.4357
head -3.0082 2.77981 4.61313
rclavicle 4.77083e-014 1.90833e-014
rhumerus 49.9103 -0.312656 11.7917
rradius 63.5104
rwrist -85.7843
rhand 15.9965 6.21683
rfingers 7.12502
rthumb 40.7889 -18.7663
lclavicle 4.77083e-014 1.90833e-014
lhumerus 61.8771 -26.768 56.0656
lradius 73.6326
lwrist 91.3886
lhand -1.30196 26.2417
lfingers 7.12502
lthumb 24.3428 54.7157
rfemur -36.2216 3.17977 30.855
rtibia 47.6853
rfoot -19.521 -9.39493
rtoes -7.63575
lfemur -37.6264 17.1023 -7.93505
ltibia 52.0879
lfoot -18.3296 1.67133
ltoes -11.3121
1251
root -1.58977 16.874 -2.56389 7.47454 -6.77727 -5.10967
lowerback 20.1698 -0.546981 -6.2676
upperback 11.313 -1.91247 -6.17839
thorax 1.01233 -1.07144 -2.69842
lowerneck -1.31699 3.49021 -4.12179
upperneck -9.28241 5.80656 13.5852
head -3.02337 2.62067 4.66802
rclavicle -4.92986e-014 -3.81667e-014
rhumerus 50.102 -0.255079 11.5955
rradius 63.4076
rwrist -85.6227
rhand 15.8582 6.32337
rfingers 7.12502
rthumb 40.6589 -18.7005
lclavicle -4.92986e-014 -3.81667e-014
lhumerus 61.8512 -26.5939 55.8448
lradius 73.5564
lwrist 91.5521
lhand -1.49502 26.5866
lfingers 7.12502
lthumb 24.1577 55.0854
rfemur -36.269 2.75486 31.0416
rtibia 47.9023
rfoot -19.5826 -9.94518
rtoes -7.97174
lfemur -37.8293 16.5903 -7.78131
ltibia 52.0181
lfoot -18.0831 1.44347
ltoes -11.9506
1252
root -1.63673 16.8637 -2.56027 7.3942 -5.89097 -5.08308
lowerback 20.2841 -0.415608 -6.07099
upperback 11.3978 -1.70577 -6.15572
thorax 1.04216 -0.957208 -2.82394
lowerneck -1.49092 3.22867 -3.99548
upperneck -9.30607 5.45636 13.6175
head -2.96571 2.44799 4.67202
rclavicle -1.59028e-014 -3.18055e-015
rhumerus 50.2753 -0.202042 11.4683
rradius 63.2537
rwrist -85.5564
rhand 16.0801 6.50669
rfingers 7.12502
rthumb 40.8674 -18.4517
lclavicle -1.59028e-014 -3.18055e-015
lhumerus 61.9012 -26.4644 55.4882
lradius 73.4298
lwrist 91.4085
lhand -1.39883 26.4981
lfingers 7.12502
lthumb 24.2499 54.9846
rfemur -36.3362 2.34473 31.2068
rtibia 48.1366
rfoot -19.7033 -10.4092
rtoes -8.04971
lfemur -38.0118 16.12 -7.64809
ltibia 51.9248
lfoot -17.7846 1.00219
ltoes -11.2571
1253
root -1.68245 16.8631 -2.55228 7.3378 -5.03871 -4.84125
lowerback 20.2958 -0.241082 -6.04597
upperback 11.4947 -1.46091 -6.18311
thorax 1.14518 -0.830842 -2.91651
lowerneck -1.71225 2.92644 -3.88772
upperneck -9.27195 5.04312 13.6522
head -2.87795 2.24834 4.68153
rclavicle 1.59028e-015 3.18055e-014
rhumerus 50.3537 -0.171363 11.2869
rradius 63.1368
rwrist -85.4141
rhand 16.6 6.43789
rfingers 7.12502
rthumb 41.3555 -18.3644
lclavicle 1.59028e-015 3.18055e-014
lhumerus 62.0449 -26.4288 55.0104
lradius 73.2268
lwrist 91.1392
lhand -0.965125 25.9158
lfingers 7.12502
lthumb 24.6656 54.3461
rfemur -36.4269 1.89597 31.1248
rtibia 48.3735
rfoot -19.9116 -10.7887
rtoes -8.00071
lfemur -38.163 15.5739 -7.77384
ltibia 51.7998
lfoot -17.5581 0.653117
ltoes -10.5768
1254
root -1.72457 16.861 -2.54534 7.35 -4.11081 -4.49368
lowerback 20.2582 -0.0992318 -6.03839
upperback 11.5549 -1.25815 -6.23932
thorax 1.23279 -0.723968 -3.02162
lowerneck -1.75872 2.61289 -3.77267
upperneck -9.37647 4.62957 13.6879
head -2.86086 2.03636 4.68626
rclavicle 3.81667e-014 7.79236e-014
rhumerus 50.3866 -0.0921682 11.1452
rradius 63.1015
rwrist -85.4212
rhand 16.7986 6.29117
rfingers 7.12502
rthumb 41.5419 -18.4505
lclavicle 3.81667e-014 7.79236e-014
lhumerus 62.1015 -26.4436 54.6569
lradius 73.0814
lwrist 91.1615
lhand -0.747171 25.5803
lfingers 7.12502
lthumb 24.8745 53.9819
rfemur -36.6132 1.32395 30.9275
rtibia 48.6095
rfoot -20.1084 -11.1141
rtoes -7.93744
lfemur -38.4305 14.9767 -8.06261
ltibia 51.674
lfoot -17.4034 0.403874
ltoes -10.4515
1255
root -1.76826 16.8527 -2.53763 7.32045 -3.18525 -4.47913
lowerback 20.3078 0.0141027 -5.70024
upperback 11.5999 -1.04773 -6.23632
thorax 1.25021 -0.598788 -3.24865
lowerneck -1.87368 2.31773 -3.7206
upperneck -9.34528 4.23263 13.8068
head -2.7964 1.83991 4.72696
rclavicle -2.54444e-014 9.54166e-015
rhumerus 50.4533 0.063715 10.9681
rradius 63.0506
rwrist -85.4795
rhand 16.5921 6.10179
rfingers 7.12502
rthumb 41.3482 -18.7029
lclavicle -2.54444e-014 9.54166e-015
lhumerus 62.0819 -26.3878 54.4165
lradius 72.9274
lwrist 91.6574
lhand -0.561157 25.7984
lfingers 7.12502
lthumb 25.0528 54.1753
rfemur -36.6894 0.864557 31.0903
rtibia 48.8159
rfoot -20.3592 -11.438
rtoes -7.56758
lfemur -38.6537 14.4361 -7.92598
ltibia 51.5904
lfoot -17.1604 0.014615
ltoes -10.046
1256
root -1.81197 16.8435 -2.52918 7.31702 -2.30581 -4.53844
lowerback 20.3026 0.148764 -5.28804
upperback 11.6559 -0.791402 -6.19665
thorax 1.30962 -0.448894 -3.4872
lowerneck -2.04228 2.0009 -3.85463
upperneck -9.25183 3.81146 14.0905
head -2.7068 1.63733 4.85083
rclavicle -6.36111e-015 -5.40694e-014
rhumerus 50.4805 0.233539 10.8935
rradius 62.9719
rwrist -85.4876
rhand 16.3822 6.1086
rfingers 7.12502
rthumb 41.1511 -18.7596
lclavicle -6.36111e-015 -5.40694e-014
lhumerus 62.1066 -26.3246 54.2019
lradius 72.7341
lwrist 92.0434
lhand -0.262979 26.0876
lfingers 7.12502
lthumb 25.3385 54.4243
rfemur -36.8016 0.423758 31.3476
rtibia 49.0244
rfoot -20.6198 -11.7362
rtoes -7.46289
lfemur -38.9153 13.9461 -7.7172
ltibia 51.5311
lfoot -16.9014 -0.29172
ltoes -9.97252
